<svg xmlns="http://www.w3.org/2000/svg" width="27.532" height="27.531" viewBox="0 0 27.532 27.531"><defs><style>.a{fill:#c4c8d6;}.b{fill:#0069ff;}</style></defs><path class="a" d="M10.611,9.177h-8.6A2.01,2.01,0,0,1,0,7.17V2.008A2.01,2.01,0,0,1,2.007,0h8.6a2.01,2.01,0,0,1,2.008,2.007V7.17A2.01,2.01,0,0,1,10.611,9.177Zm-8.6-7.456a.287.287,0,0,0-.287.287V7.17a.287.287,0,0,0,.287.287h8.6A.287.287,0,0,0,10.9,7.17V2.008a.287.287,0,0,0-.287-.287Zm0,0" transform="translate(0 0)"/><path class="a" d="M10.611,229.392h-8.6A2.01,2.01,0,0,1,0,227.385V215.34a2.01,2.01,0,0,1,2.007-2.008h8.6a2.01,2.01,0,0,1,2.008,2.008v12.045A2.01,2.01,0,0,1,10.611,229.392Zm-8.6-14.339a.287.287,0,0,0-.287.287v12.045a.287.287,0,0,0,.287.287h8.6a.287.287,0,0,0,.287-.287V215.34a.287.287,0,0,0-.287-.287Zm0,0" transform="translate(0 -201.861)"/><path class="b" d="M287.944,350.509h-8.6a2.01,2.01,0,0,1-2.008-2.007V343.34a2.01,2.01,0,0,1,2.008-2.008h8.6a2.01,2.01,0,0,1,2.007,2.008V348.5A2.01,2.01,0,0,1,287.944,350.509Zm-8.6-7.456a.287.287,0,0,0-.287.287V348.5a.287.287,0,0,0,.287.287h8.6a.287.287,0,0,0,.287-.287V343.34a.287.287,0,0,0-.287-.287Zm0,0" transform="translate(-262.419 -322.978)"/><path class="a" d="M287.944,16.06h-8.6a2.01,2.01,0,0,1-2.008-2.008V2.008A2.01,2.01,0,0,1,279.34,0h8.6a2.01,2.01,0,0,1,2.007,2.007V14.052A2.01,2.01,0,0,1,287.944,16.06Zm-8.6-14.339a.287.287,0,0,0-.287.287V14.052a.287.287,0,0,0,.287.287h8.6a.287.287,0,0,0,.287-.287V2.008a.287.287,0,0,0-.287-.287Zm0,0" transform="translate(-262.419 0)"/></svg>