<svg xmlns="http://www.w3.org/2000/svg" width="28.645" height="28.129" viewBox="0 0 28.645 28.129"><defs><style>.a{fill:#c4c8d6;}.b{fill:#0069ff;}</style></defs><g transform="translate(0 0)"><path class="a" d="M733,309.488c1.919-1.276,4.591-1.891,7.045-2.54v-.138a8.166,8.166,0,0,1-2.622-2.623l-1.213-2.485v-8.933a4.642,4.642,0,0,1,4.617-4.656h5.78v1.567l3.634-1.567h2.193v6.714l-.068,6.154a8.108,8.108,0,0,1-3.767,5.83v.139c4.91,1.3,10.045,2.348,10.045,8.454v.839H730V315.4a6.586,6.586,0,0,1,3-5.914Zm13.921-1.885a8.136,8.136,0,0,1-5.2,0v.717a2.6,2.6,0,0,0,5.2,0Zm-10.711-8.3,14.378-9.511-5.657,2.441V289.79h-4.1a2.961,2.961,0,0,0-2.939,2.977v2.058h9.928a2.962,2.962,0,0,0,2.939-2.973v-.1h0V289.79Zm1.847,6.714-1.678,3.429v-4.5a4.574,4.574,0,0,1-2.939,1.068h-9.928v3.429c0,.915-.349,2.16,0,2.948l1.62,1.3a6.434,6.434,0,0,0,11.247-4.253Zm6.168,14.629a4.691,4.691,0,0,0-2.209-3.678,21.9,21.9,0,0,0-6.132-2.207,4.277,4.277,0,0,1-8.521,0,21.9,21.9,0,0,0-6.133,2.208,4.69,4.69,0,0,0-2.209,3.678Z" transform="translate(-730 -288.112)"/></g><g transform="translate(2.417 7.249)"><path class="b" d="M750.063,339.075h-5.638V332.9h5.638Zm-1.879-4.3H746.3V337.2h1.879Z" transform="translate(-726.17 -332.9)"/><path class="b" d="M829.854,339.716h5.341V341.6h-7.248v-2.52h-3.732V332.9h5.638v6.175m-1.879-2.312v-1.983h-1.879V337.2h1.874" transform="translate(-824.214 -332.9)"/></g></svg>