<svg xmlns="http://www.w3.org/2000/svg" width="25.807" height="25.798" viewBox="0 0 25.807 25.798"><defs><style>.a{fill:#0069ff;}.b{fill:#d3d6e2;}.c{fill:#c4c8d6;}</style></defs><path class="a" d="M605.825,79.175h2.268v1.511h-.756a.756.756,0,0,0-.087,1.506h6.227a.755.755,0,0,0-.1-1.5h-.756V79.175H614.9a2.271,2.271,0,0,0,2.269-2.268V72.321a2.271,2.271,0,0,0-2.269-2.268h-9.074a2.271,2.271,0,0,0-2.267,2.268v4.586A2.271,2.271,0,0,0,605.825,79.175Zm5.289,1.511H609.6V79.175h1.511Zm-6.039-8.365a.757.757,0,0,1,.756-.756H614.9a.757.757,0,0,1,.756.756v4.586a.757.757,0,0,1-.756.756H605.83a.757.757,0,0,1-.756-.756Z" transform="translate(-597.459 -70.053)"/><path class="b" d="M716.079,324l-.014.014.014-.014Z" transform="translate(-703.921 -310.356)"/><path class="c" d="M513.579,327.281h-.756v-.756a2.271,2.271,0,0,0-2.268-2.268H495.339a2.271,2.271,0,0,0-2.269,2.268v.756h-.76a2.271,2.271,0,0,0-2.269,2.268v1.511a2.271,2.271,0,0,0,2.269,2.268h.756v1.557h-.756a.756.756,0,1,0,0,1.511h3.028a.756.756,0,1,0,0-1.511h-.761V333.33h.761a2.271,2.271,0,0,0,2.268-2.268V329.55a2.271,2.271,0,0,0-2.268-2.268h-.761v-.756a.757.757,0,0,1,.756-.756h6.852v1.511h-.753a2.271,2.271,0,0,0-2.268,2.268v1.511a2.271,2.271,0,0,0,2.268,2.268h.753v1.557h-.753a.756.756,0,1,0,0,1.511h3.024a.756.756,0,1,0,0-1.511H503.7V333.33h.756a2.271,2.271,0,0,0,2.269-2.268V329.55a2.271,2.271,0,0,0-2.269-2.268H503.7V325.77h6.855a.757.757,0,0,1,.756.756v.756h-.756a2.271,2.271,0,0,0-2.268,2.268v1.511a2.271,2.271,0,0,0,2.268,2.268h.756v1.557h-.756a.756.756,0,1,0,0,1.511h3.024a.756.756,0,1,0,0-1.511h-.756V333.33h.756a2.271,2.271,0,0,0,2.269-2.268V329.55A2.271,2.271,0,0,0,513.579,327.281Zm-18.24,1.513a.757.757,0,0,1,.756.756v1.511a.757.757,0,0,1-.756.756h-3.028a.757.757,0,0,1-.756-.756V329.55a.757.757,0,0,1,.756-.756Zm9.123,0a.757.757,0,0,1,.756.756v1.511a.757.757,0,0,1-.756.756h-3.029a.757.757,0,0,1-.756-.756V329.55a.757.757,0,0,1,.756-.756Zm9.867,2.268a.757.757,0,0,1-.756.756h-3.019a.757.757,0,0,1-.756-.756v-1.511a.757.757,0,0,1,.756-.756h3.024a.757.757,0,0,1,.756.756Z" transform="translate(-490.042 -310.6)"/></svg>