<svg xmlns="http://www.w3.org/2000/svg" width="23.826" height="23.826" viewBox="0 0 23.826 23.826"><defs><style>.a{isolation:isolate;}.b{fill:#c4c8d6;}</style></defs><g class="a"><g transform="translate(0 0)"><path class="b" d="M10.493,0A10.493,10.493,0,1,0,20.985,10.493,10.5,10.5,0,0,0,10.493,0Zm0,19.048a8.556,8.556,0,1,1,8.555-8.556A8.565,8.565,0,0,1,10.493,19.048Z" transform="translate(0 0)"/></g><g transform="translate(16.336 16.336)"><path class="b" d="M358.252,356.882,352.7,351.33a.968.968,0,0,0-1.369,1.369l5.553,5.553a.968.968,0,1,0,1.37-1.37Z" transform="translate(-351.046 -351.046)"/></g></g></svg>