<svg xmlns="http://www.w3.org/2000/svg" width="25.19" height="19.452" viewBox="0 0 25.19 19.452"><defs><style>.a{fill:#c4c8d6;stroke:#c4c8d6;stroke-width:0.5px;}</style></defs><path class="a" d="M24.69,31.2V41.19A2.718,2.718,0,0,1,21.975,43.9H2.715A2.718,2.718,0,0,1,0,41.19V27.667a2.718,2.718,0,0,1,2.715-2.715h9.891a.461.461,0,1,1,0,.922H2.715A1.8,1.8,0,0,0,.922,27.667v1.367l10.55,5.123a1.986,1.986,0,0,0,1.745,0l4.254-2.066a.461.461,0,1,1,.4.83L13.62,34.987a2.9,2.9,0,0,1-2.551,0L.922,30.06V41.19a1.8,1.8,0,0,0,1.793,1.793h19.26a1.8,1.8,0,0,0,1.793-1.793V31.2a.461.461,0,0,1,.922,0ZM7.2,36.049,2.709,40.543a.461.461,0,1,0,.652.652L7.856,36.7a.461.461,0,0,0-.652-.652Zm9.63,0a.461.461,0,0,0,0,.652L21.329,41.2a.461.461,0,0,0,.652-.652l-4.495-4.495a.461.461,0,0,0-.652,0Z" transform="translate(0.25 -24.702)"/></svg>