<svg xmlns="http://www.w3.org/2000/svg" width="25.572" height="25.571" viewBox="0 0 25.572 25.571"><defs><style>.a{fill:#c4c8d6;}.b{fill:#0069ff;}</style></defs><path class="a" d="M22.176,0H3.4A3.4,3.4,0,0,0,0,3.4V17.381a1.8,1.8,0,0,0,1.8,1.8h3.4v4.595a1.8,1.8,0,0,0,1.8,1.8H23.774a1.8,1.8,0,0,0,1.8-1.8V3.4A3.4,3.4,0,0,0,22.176,0ZM1.6,17.381V3.4a1.8,1.8,0,0,1,3.6,0V17.58H1.8A.2.2,0,0,1,1.6,17.381Zm22.376,6.393a.2.2,0,0,1-.2.2H6.992a.2.2,0,0,1-.2-.2V3.4a3.375,3.375,0,0,0-.517-1.8h15.9a1.8,1.8,0,0,1,1.8,1.8Z"/><path class="b" d="M246.393,129.19a3.2,3.2,0,0,0-3.2-3.2,1.6,1.6,0,1,1,1.576-1.866.8.8,0,0,0,1.576-.264A3.182,3.182,0,0,0,244,121.3v-.5a.8.8,0,0,0-1.6,0v.5a3.2,3.2,0,0,0,.8,6.292,1.6,1.6,0,1,1-1.576,1.866.8.8,0,1,0-1.576.264,3.182,3.182,0,0,0,2.353,2.564v.5a.8.8,0,0,0,1.6,0v-.5A3.2,3.2,0,0,0,246.393,129.19Z" transform="translate(-228.013 -114.007)"/></svg>