<svg xmlns="http://www.w3.org/2000/svg" width="30.782" height="28.066" viewBox="0 0 30.782 28.066"><defs><style>.a{fill:#0069ff;}</style></defs><g transform="translate(-30.841 -44.613)"><path class="a" d="M209.55,342a11.814,11.814,0,0,0,6.936,0v.876a3.482,3.482,0,0,1-6.936,0Z" transform="translate(-166.711 -277.066)"/><path class="a" d="M141.206,44.613l6.91,2.981V44.613h5.009a3.617,3.617,0,0,1,3.589,3.636v2.513H144.59A3.617,3.617,0,0,1,141,47.131V47h0V44.613Z" transform="translate(-102.725 0)"/><path class="a" d="M154.736,146.216A7.858,7.858,0,0,1,141,141.021h0V135.53a5.586,5.586,0,0,0,3.589,1.3h12.125v4.187a7.091,7.091,0,0,1-1.979,5.194" transform="translate(-102.725 -84.705)"/><path class="a" d="M30.741,357.412a5.728,5.728,0,0,1,2.7-4.49c1.977-1.314,5.034-2.052,7.49-2.695a5.223,5.223,0,0,0,10.407,0c2.6.681,5.55,1.405,7.49,2.695a5.728,5.728,0,0,1,2.7,4.49Z" transform="translate(0.1 -284.733)"/></g></svg>