<svg xmlns="http://www.w3.org/2000/svg" width="28.427" height="28.428" viewBox="0 0 28.427 28.428"><defs><style>.a{fill:#c4c8d6;}.b{fill:#0069ff;}</style></defs><path class="a" d="M137.774,421.33a4.447,4.447,0,0,1-4.442-4.442.888.888,0,1,1,1.777,0,2.665,2.665,0,1,0,5.33,0,.888.888,0,1,1,1.777,0A4.447,4.447,0,0,1,137.774,421.33Zm0,0" transform="translate(-125.929 -392.902)"/><path class="a" d="M21.617,88.956H2.073A2.073,2.073,0,0,1,.725,85.308a.817.817,0,0,1,.095-.071,7.961,7.961,0,0,0,2.734-6.005v-3.3A8.239,8.239,0,0,1,9.91,67.872a.889.889,0,0,1,.41,1.729,6.467,6.467,0,0,0-4.99,6.325v3.3a9.742,9.742,0,0,1-3.438,7.428c-.018.014-.033.027-.052.04a.293.293,0,0,0-.063.184.3.3,0,0,0,.3.3H21.617a.3.3,0,0,0,.3-.3.283.283,0,0,0-.064-.184c-.018-.013-.034-.026-.051-.04a9.66,9.66,0,0,1-2.489-3.247.888.888,0,1,1,1.6-.759,7.917,7.917,0,0,0,1.958,2.587,1.026,1.026,0,0,1,.09.067,2.072,2.072,0,0,1-1.346,3.648Zm0,0" transform="translate(0 -64.081)"/><path class="b" d="M242.367,15.4a7.7,7.7,0,1,1,7.7-7.7A7.708,7.708,0,0,1,242.367,15.4Zm0-13.622A5.922,5.922,0,1,0,248.289,7.7,5.929,5.929,0,0,0,242.367,1.777Zm0,0" transform="translate(-221.639)"/><path class="b" d="M338.369,91.847a.889.889,0,0,1-.888-.888v-3.85h-.592a.888.888,0,0,1,0-1.777h1.481a.889.889,0,0,1,.888.888v4.738A.889.889,0,0,1,338.369,91.847Zm0,0" transform="translate(-317.345 -80.594)"/></svg>