<svg xmlns="http://www.w3.org/2000/svg" width="15" height="15" viewBox="0 0 15 15"><defs><style>.a{fill:#0069ff;}.b{fill:#fff;}</style></defs><g transform="translate(-1583 -188)"><circle class="a" cx="7.5" cy="7.5" r="7.5" transform="translate(1583 188)"/><g transform="translate(1583 188)"><path class="b" d="M173.469,171a2.469,2.469,0,1,0,2.469,2.469A2.471,2.471,0,0,0,173.469,171Zm0,4.066a1.6,1.6,0,1,1,1.6-1.6A1.6,1.6,0,0,1,173.469,175.066Z" transform="translate(-166.034 -166.034)"/><path class="b" d="M71.977,65.365,70.9,65.15q-.075-.213-.17-.414l.608-.911a.436.436,0,0,0-.054-.55l-1.232-1.232a.436.436,0,0,0-.55-.054l-.911.608q-.2-.095-.414-.17l-.215-1.075a.436.436,0,0,0-.427-.35H65.792a.436.436,0,0,0-.427.35l-.215,1.075q-.213.075-.414.17l-.911-.608a.436.436,0,0,0-.55.054l-1.232,1.232a.436.436,0,0,0-.054.55l.608.911q-.095.2-.17.414l-1.075.215a.436.436,0,0,0-.35.427v1.743a.436.436,0,0,0,.35.427l1.075.215q.075.213.17.414l-.608.911a.436.436,0,0,0,.054.55l1.232,1.232a.436.436,0,0,0,.55.054l.911-.608q.2.095.414.17l.215,1.075a.436.436,0,0,0,.427.35h1.743a.436.436,0,0,0,.427-.35l.215-1.075q.213-.075.414-.17l.911.608a.436.436,0,0,0,.55-.054l1.232-1.232a.436.436,0,0,0,.054-.55l-.608-.911q.095-.2.17-.414l1.075-.215a.436.436,0,0,0,.35-.427V65.792A.436.436,0,0,0,71.977,65.365Zm-.521,1.813-.976.2a.436.436,0,0,0-.333.306,3.615,3.615,0,0,1-.3.732.436.436,0,0,0,.019.452l.551.826-.727.727-.826-.551a.436.436,0,0,0-.452-.019,3.61,3.61,0,0,1-.732.3.436.436,0,0,0-.306.333l-.2.976H66.149l-.2-.976a.436.436,0,0,0-.306-.333,3.613,3.613,0,0,1-.732-.3.436.436,0,0,0-.452.019l-.826.551-.727-.727.551-.826a.436.436,0,0,0,.019-.452,3.614,3.614,0,0,1-.3-.732.436.436,0,0,0-.333-.306l-.976-.2V66.149l.976-.2a.436.436,0,0,0,.333-.305,3.614,3.614,0,0,1,.3-.732.436.436,0,0,0-.019-.452l-.551-.826.727-.727.826.551a.436.436,0,0,0,.452.019,3.61,3.61,0,0,1,.732-.3.436.436,0,0,0,.306-.333l.2-.976h1.028l.2.976a.436.436,0,0,0,.306.333,3.613,3.613,0,0,1,.732.3.436.436,0,0,0,.452-.019l.826-.551.727.727-.551.826a.436.436,0,0,0-.019.452,3.615,3.615,0,0,1,.3.732.436.436,0,0,0,.333.305l.976.2Z" transform="translate(-59.228 -59.228)"/></g></g></svg>