<svg xmlns="http://www.w3.org/2000/svg" width="26.49" height="26.489" viewBox="0 0 26.49 26.489"><defs><style>.a{fill:#c4c8d6;stroke:#c4c8d6;}.a,.b{stroke-width:0.3px;}.b{fill:#0069ff;stroke:#0069ff;}</style></defs><g transform="translate(0.15 0.15)"><path class="a" d="M4.606,20.253a2.136,2.136,0,0,0-1.032.263A12.077,12.077,0,0,1,15.5,1.262a.512.512,0,0,0,.2-1A13.193,13.193,0,0,0,13.095,0,13.095,13.095,0,0,0,2.818,21.209a2.149,2.149,0,1,0,1.788-.957ZM5.4,23.2a1.125,1.125,0,1,1,.33-.8A1.118,1.118,0,0,1,5.4,23.2Zm0,0" transform="translate(0 0.001)"/><path class="b" d="M210.754,35.39a2.144,2.144,0,1,0-.756.694,12.077,12.077,0,0,1-11.9,19.259.512.512,0,1,0-.2,1,13.2,13.2,0,0,0,2.582.255A13.095,13.095,0,0,0,210.754,35.39Zm-2.584-.4a1.126,1.126,0,1,1,.8.329A1.118,1.118,0,0,1,208.17,34.995Zm0,0" transform="translate(-187.382 -30.411)"/><path class="a" d="M80.178,89.578a.44.44,0,0,0,.44.44h2.751a.44.44,0,0,0,.44-.44v-.853a6.89,6.89,0,0,0,1.652-.685l.6.6a.44.44,0,0,0,.622,0L88.63,86.7a.44.44,0,0,0,0-.622l-.6-.6a6.891,6.891,0,0,0,.684-1.652h.85a.44.44,0,0,0,.44-.44V80.629a.44.44,0,0,0-.44-.44h-.85a6.892,6.892,0,0,0-.684-1.651l.6-.6a.44.44,0,0,0,0-.623L86.68,75.372a.44.44,0,0,0-.622,0l-.6.6a6.891,6.891,0,0,0-1.652-.685V74.44a.44.44,0,0,0-.44-.44H80.618a.44.44,0,0,0-.44.44v.845a6.884,6.884,0,0,0-1.651.684l-.6-.6a.44.44,0,0,0-.622,0L75.36,77.317a.44.44,0,0,0,0,.622l.6.6a6.89,6.89,0,0,0-.684,1.651h-.848a.44.44,0,0,0-.44.44l0,2.752a.44.44,0,0,0,.44.44h.85a6.891,6.891,0,0,0,.684,1.652l-.6.6a.44.44,0,0,0,0,.622L77.3,88.643a.44.44,0,0,0,.311.129h0a.44.44,0,0,0,.311-.129l.6-.6a6.9,6.9,0,0,0,1.652.685ZM78.7,87.115a.44.44,0,0,0-.55.058l-.536.536L76.29,86.386l.535-.535a.44.44,0,0,0,.058-.55,6.023,6.023,0,0,1-.834-2.012.44.44,0,0,0-.43-.348h-.756V81.069h.755a.44.44,0,0,0,.43-.348,6.023,6.023,0,0,1,.834-2.012.44.44,0,0,0-.058-.55l-.532-.532,1.324-1.323.531.532a.44.44,0,0,0,.55.058,6.021,6.021,0,0,1,2.011-.834.44.44,0,0,0,.348-.43V74.88h1.871v.751a.44.44,0,0,0,.348.43,6.025,6.025,0,0,1,2.011.834.44.44,0,0,0,.55-.058l.531-.531,1.324,1.323-.532.532a.44.44,0,0,0-.058.55,6.028,6.028,0,0,1,.833,2.012.44.44,0,0,0,.43.348h.756v1.871h-.756a.44.44,0,0,0-.43.348A6.023,6.023,0,0,1,87.1,85.3a.44.44,0,0,0,.058.55l.535.535-1.323,1.324-.536-.536a.44.44,0,0,0-.55-.058,6.027,6.027,0,0,1-2.011.834.44.44,0,0,0-.348.43v.759H81.058v-.759a.44.44,0,0,0-.348-.43A6.024,6.024,0,0,1,78.7,87.115Zm0,0" transform="translate(-68.908 -68.923)"/><path class="a" d="M180.643,177.007a3.636,3.636,0,1,0-3.636,3.636A3.64,3.64,0,0,0,180.643,177.007Zm-6.392,0a2.756,2.756,0,1,1,2.756,2.756A2.759,2.759,0,0,1,174.251,177.007Zm0,0" transform="translate(-163.922 -163.921)"/><path class="a" d="M338.59,18.832a.512.512,0,1,0-.361-.15A.515.515,0,0,0,338.59,18.832Zm0,0" transform="translate(-320.784 -16.898)"/><path class="a" d="M154.871,474.359a.512.512,0,1,0,.362.15A.516.516,0,0,0,154.871,474.359Zm0,0" transform="translate(-146.463 -450.095)"/></g></svg>